<svg xmlns="http://www.w3.org/2000/svg" fill="none" viewBox="0 0 512 512" height="512" width="512">
<path fill="#00BCEF" d="M64 411.873V108.964C64 107.872 65.0437 107.083 66.0939 107.381L154.871 132.551C155.579 132.752 156.068 133.398 156.068 134.134V344.821C156.068 345.528 156.52 346.156 157.19 346.381L355.007 412.677C355.678 412.901 356.13 413.529 356.13 414.237V509.706C356.13 510.832 355.024 511.626 353.957 511.264L65.1174 413.431C64.4494 413.205 64 412.578 64 411.873Z"></path>
<path fill="#87E5FF" d="M246.199 56.9493L169.762 31.6548C169.36 31.522 168.923 31.5488 168.541 31.7297L73.057 76.921C71.6881 77.569 71.8479 79.566 73.3024 79.988L160.096 105.168C160.506 105.287 160.947 105.242 161.324 105.042L246.452 59.965C247.733 59.287 247.575 57.4045 246.199 56.9493Z"></path>
<path fill="#00D0AE" d="M356.131 305.095V2.17641C356.131 1.0848 357.175 0.295901 358.225 0.593656L447.002 25.7638C447.71 25.9645 448.199 26.6108 448.199 27.3466L448.199 239.217V335.853C448.199 336.985 447.084 337.778 446.015 337.408L357.237 306.649C356.575 306.42 356.131 305.796 356.131 305.095Z"></path>
</svg>
